<?xml version="1.0" encoding="UTF-8" standalone="no"?>
<!-- Created with Inkscape (http://www.inkscape.org/) -->

<svg
   xmlns:dc="http://purl.org/dc/elements/1.1/"
   xmlns:cc="http://creativecommons.org/ns#"
   xmlns:rdf="http://www.w3.org/1999/02/22-rdf-syntax-ns#"
   xmlns:svg="http://www.w3.org/2000/svg"
   xmlns="http://www.w3.org/2000/svg"
   xmlns:sodipodi="http://sodipodi.sourceforge.net/DTD/sodipodi-0.dtd"
   xmlns:inkscape="http://www.inkscape.org/namespaces/inkscape"
   version="1.1"
   id="svg10"
   width="571.35107"
   height="571.35742"
   viewBox="0 0 571.35108 571.35742"
   sodipodi:docname="Bloc of Democratic Parties sun (sky blue).svg"
   inkscape:version="0.92.3 (2405546, 2018-03-11)">
  <metadata
     id="metadata16">
    <rdf:RDF>
      <cc:Work
         rdf:about="">
        <dc:format>image/svg+xml</dc:format>
        <dc:type
           rdf:resource="http://purl.org/dc/dcmitype/StillImage" />
        <dc:title></dc:title>
      </cc:Work>
    </rdf:RDF>
  </metadata>
  <defs
     id="defs14" />
  <sodipodi:namedview
     pagecolor="#ffffff"
     bordercolor="#666666"
     borderopacity="1"
     objecttolerance="10"
     gridtolerance="10"
     guidetolerance="10"
     inkscape:pageopacity="0"
     inkscape:pageshadow="2"
     inkscape:window-width="1366"
     inkscape:window-height="705"
     id="namedview12"
     showgrid="false"
     fit-margin-top="4"
     fit-margin-left="4"
     fit-margin-right="4"
     fit-margin-bottom="4"
     inkscape:pagecheckerboard="true"
     inkscape:zoom="0.21558568"
     inkscape:cx="931.01622"
     inkscape:cy="249.45071"
     inkscape:window-x="-8"
     inkscape:window-y="-8"
     inkscape:window-maximized="1"
     inkscape:current-layer="svg10" />
  <path
     id="path20"
     style="color:#000000;font-style:normal;font-variant:normal;font-weight:normal;font-stretch:normal;font-size:medium;line-height:normal;font-family:sans-serif;font-variant-ligatures:normal;font-variant-position:normal;font-variant-caps:normal;font-variant-numeric:normal;font-variant-alternates:normal;font-feature-settings:normal;text-indent:0;text-align:start;text-decoration:none;text-decoration-line:none;text-decoration-style:solid;text-decoration-color:#000000;letter-spacing:normal;word-spacing:normal;text-transform:none;writing-mode:lr-tb;direction:ltr;text-orientation:mixed;dominant-baseline:auto;baseline-shift:baseline;text-anchor:start;white-space:normal;shape-padding:0;clip-rule:nonzero;display:inline;overflow:visible;visibility:visible;opacity:1;isolation:auto;mix-blend-mode:normal;color-interpolation:sRGB;color-interpolation-filters:linearRGB;solid-color:#000000;solid-opacity:1;vector-effect:none;fill:#3b94b5;fill-opacity:1;fill-rule:nonzero;stroke:none;stroke-width:26.2432003;stroke-linecap:butt;stroke-linejoin:miter;stroke-miterlimit:4;stroke-dasharray:none;stroke-dashoffset:0;stroke-opacity:1;color-rendering:auto;image-rendering:auto;shape-rendering:auto;text-rendering:auto;enable-background:accumulate"
     d="m 302.59985,4 -26.2432,0.352381 1.88361,139.532319 c -11.91244,1.25236 -23.37154,4.04018 -34.19456,8.13694 l -30.75999,-69.381743 -14.99241,6.650486 30.77934,69.426577 c -8.94663,4.67044 -17.32182,10.29344 -24.99369,16.72877 L 94.121249,69.319669 75.893376,88.201192 185.63949,194.12862 c -6.61592,8.10718 -12.30839,16.98542 -16.9659,26.46105 l -66.53701,-27.53741 -6.272459,15.15263 66.453699,27.5054 c -3.25876,9.28819 -5.56127,19.02225 -6.77239,29.08789 L 4,266.84843 l 0.352383,26.2432 150.539587,-2.03742 c 0.8575,12.32509 3.33158,24.21046 7.22082,35.44371 l -66.357571,27.46052 6.272441,15.15263 66.38317,-27.47335 c 4.19858,8.63044 9.25794,16.77075 15.08853,24.28906 L 77.796338,467.93951 96.024211,486.82104 201.46479,385.05817 c 7.84115,6.91567 16.47778,12.9394 25.73704,17.95252 l -30.19641,68.10671 14.99898,6.65051 30.06158,-67.82482 c 12.51637,4.95531 25.91352,8.15521 39.89655,9.24535 l 2.00564,148.169 26.23664,-0.3588 -2.00531,-148.22668 c 11.37511,-1.26946 22.32509,-3.94691 32.70132,-7.81657 l 28.57557,64.44191 14.99241,-6.64408 -28.56901,-64.43553 c 10.06624,-5.19319 19.4285,-11.56675 27.87717,-18.9712 l 97.25861,93.8694 18.22164,-18.88793 -97.4574,-94.06162 c 6.02774,-7.72289 11.2357,-16.11163 15.53695,-25.01305 l 68.78606,28.46645 6.27245,-15.15905 -68.81163,-28.47925 c 4.20219,-12.24351 6.7481,-25.24629 7.32316,-38.75612 l 136.4443,-1.83883 -0.35232,-26.2432 -137.44384,1.85805 c -1.27345,-8.61446 -3.40439,-16.94861 -6.19536,-24.97461 l 68.92678,-28.52409 -6.27245,-15.15906 -68.96549,28.54332 c -4.76052,-9.7528 -10.57109,-18.90294 -17.39498,-27.21066 L 501.16018,95.812738 482.93853,76.924817 381.15625,175.15741 c -8.28859,-6.90779 -17.40515,-12.84165 -27.15942,-17.67699 L 383.18091,91.654567 368.1885,85.004081 338.89551,151.0862 c -10.91257,-3.87028 -22.44122,-6.42883 -34.40582,-7.43857 z m -9.8156,165.35904 c 62.02711,0 112.02697,49.99963 112.02697,112.02695 0,62.02731 -49.99986,112.02693 -112.02697,112.02693 -62.02745,0 -112.02698,-49.99962 -112.02698,-112.02693 0,-62.02732 49.99953,-112.02695 112.02698,-112.02695 z"
     inkscape:connector-curvature="0" />
</svg>
